PathFileType	4	(X/Y/Z)	output.trc
DataRate	CameraRate	NumFrames	NumMarkers	Units	OrigDataRate	OrigDataStartFrame	OrigNumFrames
50	50	12	18	mm	50	283	1
Frame#	Time	K4ABT_JOINT_PELVIS			K4ABT_JOINT_SPINE_NAVEL			K4ABT_JOINT_SPINE_CHEST			K4ABT_JOINT_NECK			K4ABT_JOINT_CLAVICLE_LEFT			K4ABT_JOINT_SHOULDER_LEFT			K4ABT_JOINT_ELBOW_LEFT			K4ABT_JOINT_WRIST_LEFT			K4ABT_JOINT_HAND_LEFT			K4ABT_JOINT_HANDTIP_LEFT			K4ABT_JOINT_THUMB_LEFT			K4ABT_JOINT_CLAVICLE_RIGHT			K4ABT_JOINT_SHOULDER_RIGHT			K4ABT_JOINT_ELBOW_RIGHT			K4ABT_JOINT_WRIST_RIGHT			K4ABT_JOINT_HAND_RIGHT			K4ABT_JOINT_HANDTIP_RIGHT			K4ABT_JOINT_THUMB_RIGHT		
		X1	Y1	Z1	X2	Y2	Z2	X3	Y3	Z3	X4	Y4	Z4	X5	Y5	Z5	X6	Y6	Z6	X7	Y7	Z7	X8	Y8	Z8	X9	Y9	Z9	X10	Y10	Z10	X11	Y11	Z11	X12	Y12	Z12	X13	Y13	Z13	X14	Y14	Z14	X15	Y15	Z15	X16	Y16	Z16	X17	Y17	Z17	X18	Y18	Z18
282	9700222.000000	97.673599	-137.868011	2008.344116	126.494301	-322.520508	1994.905518	148.731995	-470.650543	1993.838867	171.575333	-696.475037	2015.571411	202.698242	-655.488098	2016.760376	345.889740	-621.331787	2046.261597	388.599945	-382.487854	2205.516357	387.524109	-291.825958	1979.427856	327.609283	-326.009460	1905.473022	273.790985	-384.087738	1986.769653	287.552216	-381.747437	1911.927246	132.769257	-662.637634	2009.395386	-4.479736	-648.344543	2003.456299	-98.859573	-394.109711	2121.384521	-134.110474	-176.134628	2011.417358	-107.684151	-165.844345	1906.284546	-85.625343	-64.453384	1865.344360	-59.573185	-122.182159	1900.097168
283	9733533.000000	94.775803	-137.680695	1981.138794	115.060272	-322.424042	1966.411377	130.551804	-470.658447	1965.191162	158.359222	-693.988770	1993.893799	188.616623	-652.705322	1991.947876	330.505066	-610.415649	2011.841309	385.770477	-391.240479	2191.570557	367.677521	-236.735123	2005.702026	341.080383	-276.973419	1917.388184	265.124023	-342.323853	1969.450317	302.968628	-354.240204	1933.532471	118.888351	-661.192566	1988.533569	-17.761499	-651.846924	1977.285400	-105.121696	-403.396912	2108.512939	-137.591049	-172.537735	2031.747803	-129.094223	-164.367889	1924.043579	-105.630348	-58.959679	1898.400513	-87.099007	-108.424698	1913.480347
284	9766888.000000	89.641762	-135.847702	1962.141479	109.895859	-319.884613	1943.644287	124.936646	-467.861664	1941.586426	149.138260	-691.875916	1964.019043	179.232071	-650.733948	1967.892944	314.995514	-604.905212	2009.085938	334.898315	-416.735779	2226.486816	349.130035	-332.794800	2000.064575	330.736084	-399.410339	1927.194092	318.036804	-464.714355	1836.229614	285.783752	-458.908966	1948.070312	110.732742	-658.806824	1954.894165	-24.579712	-640.036926	1942.602295	-112.766380	-391.355316	2071.522217	-134.931030	-157.105927	2003.386475	-128.681427	-114.096405	1904.370605	-104.031487	-10.049046	1875.436890	-86.666046	-66.559258	1905.491943
285	9800222.000000	78.648262	-143.253189	1950.528687	101.600807	-327.568878	1932.838379	118.820221	-475.433105	1923.413330	144.417358	-700.514771	1938.771484	174.161591	-659.195068	1944.739258	308.094391	-611.313354	1990.785400	332.641205	-382.323792	2165.383057	337.246582	-365.414642	1923.453735	316.405518	-442.383698	1861.948608	295.371613	-515.879272	1778.725098	279.551514	-491.711670	1883.498047	105.849777	-667.346985	1929.893799	-28.456114	-648.600037	1906.945312	-123.952980	-404.403809	2040.967407	-160.172119	-161.905746	2026.173096	-148.628677	-145.201477	1919.660278	-175.075058	-70.041580	1842.267822	-132.143951	-93.284683	1906.187256
286	9833555.000000	73.125175	-145.364868	1941.605713	97.241409	-330.634766	1923.102173	116.039635	-478.960022	1909.887573	134.755157	-706.594849	1915.537476	165.899246	-666.261169	1923.529785	303.426392	-629.731628	1972.348511	341.824310	-373.018219	2103.478516	338.004272	-387.475616	1859.856323	315.218781	-467.120850	1801.493896	281.595642	-555.473511	1738.297974	286.526215	-476.804352	1774.075317	97.047760	-671.680542	1907.857666	-35.190628	-650.209656	1873.136597	-141.537155	-400.948303	1992.972900	-179.076645	-157.272675	1975.476440	-160.425507	-140.209518	1869.335938	-195.580170	-50.178856	1813.197998	-158.341370	-90.727676	1855.089478
287	9866866.000000	68.039139	-144.998245	1923.552368	90.866791	-329.441895	1905.783325	109.614693	-476.589844	1889.246948	129.147507	-702.936829	1891.226318	160.355438	-662.815918	1898.109375	299.731659	-628.046143	1939.878418	345.587402	-355.690125	2025.603516	323.853027	-411.547241	1790.402832	296.280212	-492.037170	1736.407715	251.972549	-580.234497	1681.231079	246.579529	-515.177979	1731.582886	91.216148	-668.262451	1885.872681	-38.798363	-645.320129	1847.012939	-158.365906	-396.791992	1950.748047	-202.138489	-156.313812	1924.923462	-175.566391	-138.712036	1821.210693	-209.276352	-59.829956	1750.535767	-181.899628	-95.010834	1804.958130
288	9900222.000000	65.041084	-146.885910	1902.912354	84.615242	-332.589539	1894.740723	101.446823	-480.087311	1877.730835	117.009979	-706.986694	1880.972290	149.386581	-667.344971	1885.130005	289.484558	-625.085632	1917.021118	342.610199	-343.395844	1876.420410	260.812866	-470.264923	1686.001099	284.887543	-562.390930	1719.328247	203.183624	-595.331482	1648.230103	223.274536	-570.023865	1789.342163	79.379456	-671.622620	1877.942749	-48.948318	-636.905212	1841.748169	-168.574936	-373.253235	1898.304199	-178.668823	-143.816193	1809.946167	-172.766663	-51.832737	1752.472168	-99.242264	25.662453	1783.625244	-123.278458	-25.144800	1821.754395
289	9933555.000000	65.159508	-158.284927	1874.301880	77.802765	-342.562622	1879.939209	90.780785	-488.467682	1860.723511	112.828568	-712.201355	1866.149536	143.754486	-672.044373	1869.096313	279.919159	-620.567688	1896.208984	343.299927	-350.504395	1825.617188	250.036774	-495.958435	1658.695190	258.960083	-582.860840	1706.829712	197.805618	-581.905273	1613.093384	218.438889	-575.565002	1769.705322	74.554230	-678.375916	1863.585815	-47.471924	-641.948303	1815.222656	-183.701675	-388.652588	1863.665894	-196.889297	-180.216660	1738.890503	-151.605743	-86.705933	1711.709961	-127.243576	-66.257294	1817.026978	-168.740875	-70.506966	1724.471924
290	9966888.000000	66.469193	-156.525986	1852.199341	77.623863	-338.810608	1864.422852	85.894196	-483.506256	1844.264526	110.568268	-704.867004	1842.608887	140.852005	-664.783875	1844.839966	278.131256	-617.437927	1865.388916	345.105438	-351.282837	1794.291382	251.430862	-520.885376	1656.153442	245.460190	-593.798279	1722.544189	190.758942	-591.650513	1626.146118	228.481125	-594.936462	1770.534546	72.190208	-671.807983	1843.081055	-50.387421	-635.996765	1799.534180	-187.893448	-382.495331	1816.211914	-186.569962	-183.878418	1679.778076	-167.092392	-114.969536	1601.121582	-160.526077	-83.643288	1705.280396	-147.155670	-104.792702	1590.655762
291	10000200.000000	64.973900	-155.562210	1837.647461	75.494415	-337.728394	1846.190063	84.437202	-482.600342	1830.112427	111.886818	-703.153503	1825.935547	141.597702	-662.794128	1828.591187	280.838959	-619.819336	1842.335449	341.459564	-354.283691	1765.687866	252.200897	-528.660156	1631.440430	267.081512	-601.820190	1695.837646	179.957443	-592.742065	1628.254272	227.583313	-594.403381	1759.938965	73.166420	-670.661255	1826.811646	-47.663292	-637.362793	1777.588013	-190.901108	-387.181244	1774.597900	-190.647491	-185.919540	1642.965332	-138.078201	-121.526062	1576.938232	-148.709732	-87.317375	1679.617432	-112.265930	-125.115570	1568.577759
292	10033555.000000	57.314323	-157.310028	1827.465332	65.506149	-340.404327	1827.759888	73.993713	-485.487671	1809.121704	108.179581	-705.878967	1810.922729	136.221786	-664.495850	1816.968018	273.610474	-612.778870	1821.025269	332.853394	-361.505798	1702.936157	267.310669	-455.306152	1493.942261	277.837402	-550.223206	1519.741699	191.533493	-531.262207	1452.553223	194.209686	-555.811096	1577.569580	68.623566	-674.446899	1806.431152	-56.603321	-647.472534	1763.499512	-202.502899	-400.886047	1723.755127	-175.536987	-224.199799	1561.662476	-125.629677	-160.256363	1492.631470	-128.558945	-134.514511	1598.621582	-94.897697	-169.407608	1481.921387
293	10066877.000000	56.330204	-160.282410	1804.342163	65.727310	-344.851562	1801.518311	74.029976	-491.827087	1788.751465	106.815720	-714.118530	1798.846924	135.376144	-672.399597	1803.582764	274.897156	-622.749390	1802.055908	324.895630	-361.411865	1696.384155	267.031616	-447.297699	1479.557495	247.908203	-542.101501	1504.024780	214.731903	-506.262360	1403.294312	209.197433	-526.755615	1569.970093	67.190430	-682.313965	1792.939575	-57.781719	-653.387390	1747.024658	-204.302673	-405.751190	1699.042847	-146.881287	-256.794983	1515.401123	-84.469406	-207.960846	1442.890869	-89.325081	-190.749481	1551.462646	-45.120979	-208.774155	1443.846558
